<svg xmlns="http://www.w3.org/2000/svg" width="37" height="37" viewBox="0 0 37 37" fill="">
  <path d="M18.5 18.5C16.8042 18.5 15.3525 17.8961 14.1448 16.6885C12.9372 15.4809 12.3334 14.0291 12.3334 12.3333C12.3334 10.6375 12.9372 9.18572 14.1448 7.97808C15.3525 6.77045 16.8042 6.16663 18.5 6.16663C20.1959 6.16663 21.6476 6.77045 22.8552 7.97808C24.0629 9.18572 24.6667 10.6375 24.6667 12.3333C24.6667 14.0291 24.0629 15.4809 22.8552 16.6885C21.6476 17.8961 20.1959 18.5 18.5 18.5ZM6.16669 30.8333V26.5166C6.16669 25.643 6.39177 24.8403 6.84194 24.1085C7.2921 23.3768 7.88924 22.8177 8.63335 22.4312C10.2264 21.6347 11.8452 21.0375 13.4896 20.6398C15.134 20.242 16.8042 20.0427 18.5 20.0416C20.1959 20.0406 21.866 20.24 23.5104 20.6398C25.1549 21.0396 26.7736 21.6367 28.3667 22.4312C29.1118 22.8166 29.7095 23.3757 30.1596 24.1085C30.6098 24.8413 30.8344 25.644 30.8334 26.5166V30.8333H6.16669Z" className='fill-slate-400'/>
</svg>